<?xml version="1.0" standalone="no"?>
<!DOCTYPE svg PUBLIC "-//W3C//DTD SVG 20010904//EN"
 "http://www.w3.org/TR/2001/REC-SVG-20010904/DTD/svg10.dtd">
<svg version="1.0" xmlns="http://www.w3.org/2000/svg"
 width="235.000000pt" height="237.000000pt" viewBox="0 0 235.000000 237.000000"
 preserveAspectRatio="xMidYMid meet">

<g transform="translate(0.000000,237.000000) scale(0.100000,-0.100000)"
fill="#000000" stroke="none">
<path d="M995 2226 c-33 -8 -76 -21 -95 -30 l-35 -15 60 5 c33 3 71 7 83 10
15 3 21 1 17 -5 -4 -7 23 -9 77 -6 81 4 81 4 21 -5 -34 -5 -73 -15 -88 -22
-24 -13 -21 -14 37 -11 35 2 83 0 108 -5 44 -10 43 -10 -30 -11 -41 -1 -102
-6 -135 -12 -33 -6 -72 -12 -87 -15 -15 -2 -37 -13 -48 -24 -11 -11 -26 -20
-34 -20 -19 0 -219 -100 -213 -107 3 -2 33 10 67 27 73 37 195 60 322 60 120
0 302 -27 351 -52 22 -11 63 -27 91 -35 54 -16 201 -117 211 -145 3 -9 23 -34
44 -55 38 -38 66 -78 113 -164 14 -25 30 -54 36 -65 60 -108 87 -320 56 -440
-27 -108 -110 -247 -208 -352 -32 -34 -56 -65 -54 -68 8 -7 87 63 133 118 22
26 42 45 44 42 9 -9 -74 -117 -106 -138 -17 -11 -34 -28 -36 -37 -5 -18 -117
-79 -145 -79 -9 0 -39 -14 -67 -30 -40 -24 -57 -28 -90 -23 -26 3 -54 -1 -79
-11 -42 -18 -126 -22 -126 -6 0 6 12 10 28 10 15 0 33 4 41 9 8 5 -36 11 -110
14 -87 3 -143 11 -187 26 -87 29 -110 44 -54 36 55 -9 53 -1 -4 19 -56 19
-144 74 -144 90 0 6 -16 21 -34 34 -40 27 -126 147 -162 225 -53 118 -87 334
-73 463 8 66 8 97 0 112 -6 11 -8 27 -5 35 6 17 -50 62 -66 52 -11 -7 -41 7
-65 32 -14 13 -20 14 -34 5 -9 -7 -27 -17 -39 -22 -57 -25 -152 -165 -172
-257 -10 -43 -5 -42 19 5 27 49 26 27 0 -44 -19 -49 -22 -77 -21 -192 2 -194
26 -299 87 -390 29 -43 30 -39 9 35 -9 30 -14 56 -12 59 3 2 28 -44 57 -103
69 -142 109 -196 238 -321 159 -153 170 -162 196 -162 13 0 34 -11 46 -24 14
-15 30 -22 42 -19 10 3 29 -1 41 -9 13 -8 34 -18 48 -21 14 -3 43 -11 65 -17
22 -6 50 -13 61 -15 12 -1 31 -8 42 -14 33 -18 107 -13 133 8 23 18 23 18 -57
23 -87 6 -258 57 -295 89 -21 18 -34 23 -52 20 -22 -4 -141 85 -206 154 -25
26 -62 58 -83 71 -21 13 -38 29 -38 35 0 6 -18 28 -40 50 -43 43 -57 78 -15
39 14 -13 27 -21 30 -19 4 5 -64 110 -91 140 -8 8 -14 23 -14 31 0 9 -9 35
-20 60 -10 24 -22 64 -25 88 -5 41 -3 38 24 -31 30 -81 84 -167 160 -259 83
-100 164 -185 200 -209 20 -13 47 -34 61 -47 14 -12 59 -36 100 -52 52 -21 75
-35 74 -46 -1 -9 -1 -16 0 -16 0 0 16 -4 34 -10 29 -8 33 -7 28 7 -5 13 0 15
31 10 21 -3 88 -13 148 -22 131 -20 252 -14 370 17 96 25 223 77 279 114 88
58 211 170 259 236 27 37 51 68 53 68 3 0 -3 -15 -12 -32 -77 -150 -226 -289
-401 -376 -116 -57 -302 -112 -382 -112 -60 0 -91 -9 -91 -26 0 -21 122 -19
162 2 17 9 52 18 77 20 60 6 256 68 303 97 163 99 282 226 405 432 75 125 96
220 97 440 1 173 -13 239 -91 435 -54 135 -84 185 -185 305 -84 102 -123 137
-198 180 -28 17 -80 49 -114 72 -69 45 -126 65 -256 86 -110 19 -318 20 -395
3z m495 -152 l25 -15 -25 7 c-14 3 -32 10 -40 15 -13 7 -13 8 0 8 8 0 26 -6
40 -15z m-920 -1415 c0 -6 -4 -7 -10 -4 -5 3 -10 11 -10 16 0 6 5 7 10 4 6 -3
10 -11 10 -16z m225 -221 c22 -12 69 -31 105 -44 73 -25 62 -32 -14 -9 -84 26
-168 80 -261 170 l-90 87 110 -92 c61 -50 128 -101 150 -112z m-203 115 c181
-161 306 -216 521 -229 59 -4 107 -11 107 -15 0 -5 -51 -6 -112 -3 -157 8
-261 43 -389 130 -85 58 -205 164 -186 164 3 0 30 -21 59 -47z m405 -189 c-3
-3 -12 -4 -19 -1 -8 3 -5 6 6 6 11 1 17 -2 13 -5z m350 -20 c-3 -3 -12 -4 -19
-1 -8 3 -5 6 6 6 11 1 17 -2 13 -5z"/>
<path d="M938 2159 c-21 -11 -38 -21 -38 -23 0 -2 22 3 50 12 27 8 47 19 44
24 -7 11 -14 10 -56 -13z"/>
<path d="M770 2075 c-14 -8 -34 -12 -45 -10 -11 3 -14 2 -6 -1 9 -4 -2 -16
-34 -36 -26 -16 -45 -31 -43 -33 4 -5 178 84 178 91 0 8 -25 3 -50 -11z"/>
<path d="M2160 1572 c45 -130 70 -163 46 -62 -14 60 -37 110 -59 128 -10 9 -6
-13 13 -66z"/>
<path d="M413 450 c17 -24 67 -64 73 -58 5 6 -67 78 -78 78 -5 0 -3 -9 5 -20z"/>
<path d="M639 386 c6 -8 21 -16 32 -19 20 -5 20 -5 3 14 -20 23 -54 28 -35 5z"/>
<path d="M535 340 c3 -5 11 -10 16 -10 6 0 7 5 4 10 -3 6 -11 10 -16 10 -6 0
-7 -4 -4 -10z"/>
<path d="M1006 255 c44 -14 203 -32 194 -22 -6 6 -205 38 -224 36 -6 -1 8 -7
30 -14z"/>
<path d="M660 250 c0 -5 5 -10 11 -10 5 0 7 5 4 10 -3 6 -8 10 -11 10 -2 0 -4
-4 -4 -10z"/>
</g>
</svg>
